<?xml version="1.0" encoding="utf-8"?>
<!-- Svg Vector Icons : http://www.onlinewebfonts.com/icon -->
<!DOCTYPE svg PUBLIC "-//W3C//DTD SVG 1.1//EN" "http://www.w3.org/Graphics/SVG/1.1/DTD/svg11.dtd">
<svg version="1.1" xmlns="http://www.w3.org/2000/svg" xmlns:xlink="http://www.w3.org/1999/xlink" x="0px" y="0px" viewBox="0 0 1000 1000" enable-background="new 0 0 1000 1000" xml:space="preserve">
<metadata> Svg Vector Icons : http://www.onlinewebfonts.com/icon </metadata>
<g><g transform="translate(0.000000,503.000000) scale(0.100000,-0.100000)"><path d="M8227.8,4856.3c-587.6-128-1149.9-422.7-2018.6-1060.7L5850.4,3530l-195.8,34.9c-252.1,46.5-781.5,62.1-1031.6,33c-781.5-91.1-1491.2-418.9-2034.2-934.7c-343.2-327.7-575.9-649.6-767.9-1054.9c-308.3-655.4-411.1-1460.2-279.2-2179.6l33-176.5l-271.5-362.6C211.4-2576.4-114.4-3518.8,232.7-4199.5c160.9-314.1,482.8-548.8,833.8-612.8c649.6-118.3,1512.5,256,2792.4,1206.1l321.9,238.5l211.4-36.8c998.7-174.5,2038,85.3,2831.1,707.8c178.4,139.6,484.8,449.9,616.6,624.4c521.6,686.5,789.2,1597.9,715.6,2443.3c-13.6,147.4-36.9,331.6-54.3,409.2l-29.1,139.6l236.6,316.1c647.7,864.9,1016.1,1524.2,1146,2043.9c64,257.9,60.1,564.3-11.6,771.8c-129.9,376.2-395.6,653.5-748.5,779.5C8894.9,4902.9,8495.4,4914.5,8227.8,4856.3z M8794,4565.4c391.7-56.2,707.8-374.3,767.9-777.6c71.8-465.4-228.8-1120.8-1010.3-2197c-1784-2458.8-5160-5480-6697.8-5993.9C1338-4575.7,956-4523.3,682.6-4242.1c-374.3,382-333.5,948.3,126,1778.2c128,230.8,521.6,828,733,1113.1l149.3,201.7l62.1-153.2c34.9-83.4,77.6-180.3,95-215.3c17.5-34.9,33-69.8,33-81.4c0-9.7-69.8-116.3-157.1-238.5c-515.8-723.3-816.4-1328.3-843.5-1696.8c-15.5-201.7,13.6-302.5,116.3-405.3c147.4-147.4,368.4-155.1,754.3-25.2c1475.7,492.5,4809.1,3513.7,6525.2,5912.5c632.2,882.3,954.1,1603.7,878.4,1960.5c-75.6,349-436.3,415-1010.3,182.3c-288.9-120.2-828-442.1-1285.7-769.8l-151.3-108.6l-178.4,81.4c-98.9,46.5-199.7,91.1-225,102.8c-44.6,17.4-25.2,34.9,290.9,261.8c857.1,618.6,1458.2,892,2024.5,923C8640.8,4582.9,8720.4,4575.1,8794,4565.4z M8792.1,3894.5c15.5-5.8,38.8-40.7,50.4-75.6c62.1-188.1-174.5-694.2-665.1-1423.3c-205.6-302.5-217.2-316.1-244.3-277.3c-17.4,21.3-81.4,104.7-143.5,184.2c-141.6,182.3-418.9,453.8-620.5,603.1L7017.8,3020l93.1,65.9C7861.3,3626.9,8584.6,3974,8792.1,3894.5z M5584.8,3258.5c395.6-79.5,893.9-285.1,1231.4-511.9c323.8-217.2,655.4-544.9,859-851.3l67.9-102.8l-122.2-160.9C6598.9,305.2,4780-1509.9,3444-2535.7c-143.5-110.5-126-114.4-354.9,54.3c-498.3,368.4-921.1,952.1-1101.4,1520.3c-29.1,91.1-64,192-79.5,226.9c-67.9,162.9-95,395.6-95,830c2,475.1,23.3,618.6,153.2,1008.4c362.6,1082,1339.9,1935.3,2453,2142.7c304.4,56.2,294.7,54.3,661.2,48.5C5297.8,3291.4,5478.1,3277.9,5584.8,3258.5z M8231.7,212.1c36.9-653.5-157.1-1345.8-529.4-1900.4c-544.9-810.6-1400.1-1328.3-2359.9-1425.3c-224.9-23.3-597.2-15.5-742.7,15.5l-65.9,13.6l308.3,263.7c579.8,494.5,928.8,820.3,1607.5,1499C7126.4-643.1,7459.9-286.3,7938.9,278l254,296.7l13.6-64C8214.2,473.9,8225.9,340.1,8231.7,212.1z M2191.3-2052.9c192-256,457.6-521.6,698.1-698.1c58.2-42.7,114.4-83.4,122.2-91.1c21.3-19.4-639.9-459.6-926.9-618.6c-469.3-259.8-777.6-345.2-864.8-240.4c-108.6,129.9,149.3,727.2,616.6,1427.2c133.8,201.7,248.2,358.7,256,349C2100.1-1932.6,2144.7-1990.8,2191.3-2052.9z"/><path d="M3985,857.8c-62.1-33-87.3-75.6-87.3-151.3c0-95,64-155.1,162.9-155.1c155.1,0,221.1,162.9,110.5,273.4C4111,883,4050.9,894.7,3985,857.8z"/><path d="M1078.2,4359.9c-46.5-48.5-50.4-64-50.4-219.1V3974L830,3776.2l-199.7-199.7H479c-95,0-172.6-9.7-205.5-29.1c-71.7-36.8-104.7-124.1-75.6-203.6c29.1-85.3,104.7-116.3,281.2-116.3h151.2L830,3027.7l197.8-197.8v-170.6c0-155.1,3.9-174.5,48.5-217.2c62.1-64,162.9-64,236.6-1.9c50.4,44.6,54.3,58.2,60.1,219.1l7.8,170.6l195.8,199.7l197.8,197.8h160.9c153.2,0,164.8,3.9,219.1,56.2c38.8,38.8,56.2,75.6,56.2,118.3c0,42.7-17.4,79.5-56.2,118.3c-54.3,52.3-65.9,56.2-221.1,56.2h-164.8l-193.9,190l-193.9,188.1l-5.8,180.3c-7.8,170.6-11.6,184.2-62.1,228.8C1239.1,4427.8,1146.1,4425.8,1078.2,4359.9z M1338,3528l124.1-126l-124.1-126c-67.9-69.8-133.8-126-143.5-126c-11.6,0-75.6,54.3-141.6,120.2l-122.2,120.2l129.9,131.9c71.8,73.7,135.7,131.9,141.6,131.9C1208.1,3654.1,1270.2,3597.8,1338,3528z"/><path d="M814.5,1042c-67.9-25.2-116.3-91.1-116.3-159c1.9-102.8,75.6-176.5,174.5-176.5c64,0,155.1,102.8,155.1,172.6C1027.8,980,905.6,1073.1,814.5,1042z"/><path d="M9162.5-854.5c-102.8-100.8-31-281.2,112.5-281.2c106.7,0,186.2,100.8,160.9,203.6C9404.9-807.9,9249.7-765.3,9162.5-854.5z"/><path d="M8357.7-4185.9c-122.2-62.1-120.2-226.9,1.9-292.8c62.1-32.9,77.6-34.9,133.8-11.6c128,52.4,139.6,238.5,17.5,300.6C8445-4154.9,8419.8-4154.9,8357.7-4185.9z"/><path d="M5127.1-4381.8c-114.4-97-42.7-283.1,108.6-283.1c151.3,0,223,186.1,108.6,283.1c-29.1,25.2-77.6,46.5-108.6,46.5C5204.7-4335.2,5156.2-4356.5,5127.1-4381.8z"/></g></g>
</svg>
